<svg xmlns="http://www.w3.org/2000/svg" fill-rule="evenodd" stroke-miterlimit="10" clip-rule="evenodd" viewBox="0 0 180 75" xml:space="preserve"><rect width="180" height="75" fill="none"/><clipPath id="a"><rect width="180" height="75"/></clipPath><g clip-path="url(#a)"><rect width="180" height="75" x="0" fill="#fff"/><path fill="none" stroke="#000" stroke-width="1" d="M48.5,18.707l-3,-3l-3,3"/><path fill="none" stroke="#000" stroke-width="1" d="M48.5,35.293l-3,3l-3,-3"/><path fill="none" stroke="#000" stroke-miterlimit="1" stroke-width="1" d="M45.5,15.707l0,22.586"/><path fill-rule="nonzero" d="M19.153,25.512c-0.027,-0.765 0.352,-1.584 1.243,-1.584c0.675,-0 1.234,0.459 1.234,1.152c-0,0.882 -0.55,1.278 -1.63,1.944c-0.9,0.559 -1.664,1.099 -1.79,2.61l4.166,-0l-0,-0.674l-3.276,-0c0.152,-0.792 0.99,-1.197 1.791,-1.683c0.792,-0.496 1.547,-1.063 1.547,-2.188c0,-1.188 -0.88,-1.835 -1.997,-1.835c-1.35,-0 -2.114,0.962 -2.051,2.258l0.763,0Z"/><path fill-rule="nonzero" d="M26.767,23.254l-0.611,-0l-2.906,4.149l-0,0.737l2.799,-0l-0,1.494l0.718,-0l0,-1.494l0.864,-0l0,-0.674l-0.864,-0l0,-4.212Zm-2.86,4.212l2.124,-3.123l0.018,-0l-0,3.123l-2.142,-0Z"/><path fill-rule="nonzero" d="M32.205,27.267c-0,0.91 -0.352,1.801 -1.396,1.801c-1.053,-0 -1.468,-0.846 -1.468,-1.765c0,-0.873 0.397,-1.755 1.423,-1.755c0.99,-0 1.441,0.846 1.441,1.719Zm-3.6,4.149l0.763,-0l0,-2.402l0.018,-0c0.343,0.548 1.027,0.728 1.504,0.728c1.422,-0 2.123,-1.106 2.123,-2.421c0,-1.314 -0.71,-2.447 -2.141,-2.447c-0.639,-0 -1.233,0.225 -1.486,0.737l-0.018,-0l0,-0.629l-0.763,-0l-0,6.434Z"/><path fill-rule="nonzero" d="M33.42,29.634l0.926,-0l1.296,-1.933l1.296,1.933l0.98,-0l-1.799,-2.52l1.602,-2.132l-0.918,-0l-1.161,1.621l-1.116,-1.621l-0.98,-0l1.619,2.204l-1.745,2.448Z"/><path fill-rule="nonzero" d="M58.157,58.304c-0.027,-0.765 0.351,-1.585 1.243,-1.585c0.675,0 1.233,0.46 1.233,1.153c0,0.882 -0.549,1.278 -1.63,1.944c-0.9,0.558 -1.664,1.098 -1.79,2.609l4.166,0l0,-0.673l-3.276,-0c0.153,-0.793 0.99,-1.198 1.792,-1.684c0.792,-0.495 1.547,-1.062 1.547,-2.187c-0,-1.189 -0.881,-1.835 -1.997,-1.835c-1.351,-0 -2.115,0.961 -2.052,2.258l0.764,-0Z"/><path fill-rule="nonzero" d="M65.771,56.046l-0.611,-0l-2.907,4.149l0,0.736l2.799,0l0,1.494l0.719,0l-0,-1.494l0.864,0l-0,-0.673l-0.864,-0l-0,-4.212Zm-2.861,4.212l2.124,-3.123l0.018,-0l0,3.123l-2.142,-0Z"/><path fill-rule="nonzero" d="M71.208,60.059c0,0.909 -0.351,1.801 -1.395,1.801c-1.054,-0 -1.468,-0.847 -1.468,-1.765c-0,-0.873 0.396,-1.756 1.422,-1.756c0.991,0 1.441,0.847 1.441,1.72Zm-3.6,4.148l0.764,0l-0,-2.401l0.018,-0c0.342,0.548 1.026,0.727 1.504,0.727c1.422,0 2.123,-1.106 2.123,-2.42c-0,-1.314 -0.71,-2.447 -2.141,-2.447c-0.64,-0 -1.234,0.224 -1.486,0.736l-0.018,0l-0,-0.628l-0.764,-0l0,6.433Z"/><path fill-rule="nonzero" d="M72.423,62.425l0.927,0l1.296,-1.932l1.295,1.932l0.981,0l-1.8,-2.52l1.602,-2.131l-0.918,-0l-1.16,1.621l-1.116,-1.621l-0.981,-0l1.62,2.203l-1.746,2.448Z"/><path fill-rule="nonzero" d="M82.157,58.304c-0.027,-0.765 0.351,-1.585 1.243,-1.585c0.675,0 1.233,0.46 1.233,1.153c0,0.882 -0.549,1.278 -1.63,1.944c-0.9,0.558 -1.664,1.098 -1.79,2.609l4.166,0l0,-0.673l-3.276,-0c0.153,-0.793 0.99,-1.198 1.792,-1.684c0.792,-0.495 1.547,-1.062 1.547,-2.187c-0,-1.189 -0.881,-1.835 -1.997,-1.835c-1.351,-0 -2.115,0.961 -2.052,2.258l0.764,-0Z"/><path fill-rule="nonzero" d="M89.771,56.046l-0.611,-0l-2.907,4.149l0,0.736l2.799,0l0,1.494l0.719,0l-0,-1.494l0.864,0l-0,-0.673l-0.864,-0l-0,-4.212Zm-2.861,4.212l2.124,-3.123l0.018,-0l0,3.123l-2.142,-0Z"/><path fill-rule="nonzero" d="M95.208,60.059c0,0.909 -0.351,1.801 -1.395,1.801c-1.054,-0 -1.468,-0.847 -1.468,-1.765c-0,-0.873 0.396,-1.756 1.422,-1.756c0.991,0 1.441,0.847 1.441,1.72Zm-3.6,4.148l0.764,0l-0,-2.401l0.018,-0c0.342,0.548 1.026,0.727 1.504,0.727c1.422,0 2.123,-1.106 2.123,-2.42c-0,-1.314 -0.71,-2.447 -2.141,-2.447c-0.64,-0 -1.234,0.224 -1.486,0.736l-0.018,0l-0,-0.628l-0.764,-0l0,6.433Z"/><path fill-rule="nonzero" d="M96.423,62.425l0.927,0l1.296,-1.932l1.295,1.932l0.981,0l-1.8,-2.52l1.602,-2.131l-0.918,-0l-1.16,1.621l-1.116,-1.621l-0.981,-0l1.62,2.203l-1.746,2.448Z"/><path fill-rule="nonzero" d="M106.157,58.304c-0.027,-0.765 0.351,-1.585 1.243,-1.585c0.675,0 1.233,0.46 1.233,1.153c0,0.882 -0.549,1.278 -1.63,1.944c-0.9,0.558 -1.664,1.098 -1.79,2.609l4.166,0l0,-0.673l-3.276,-0c0.153,-0.793 0.99,-1.198 1.792,-1.684c0.792,-0.495 1.547,-1.062 1.547,-2.187c-0,-1.189 -0.881,-1.835 -1.997,-1.835c-1.351,-0 -2.115,0.961 -2.052,2.258l0.764,-0Z"/><path fill-rule="nonzero" d="M113.771,56.046l-0.611,-0l-2.907,4.149l0,0.736l2.799,0l0,1.494l0.719,0l-0,-1.494l0.864,0l-0,-0.673l-0.864,-0l-0,-4.212Zm-2.861,4.212l2.124,-3.123l0.018,-0l0,3.123l-2.142,-0Z"/><path fill-rule="nonzero" d="M119.208,60.059c0,0.909 -0.351,1.801 -1.395,1.801c-1.054,-0 -1.468,-0.847 -1.468,-1.765c-0,-0.873 0.396,-1.756 1.422,-1.756c0.991,0 1.441,0.847 1.441,1.72Zm-3.6,4.148l0.764,0l-0,-2.401l0.018,-0c0.342,0.548 1.026,0.727 1.504,0.727c1.422,0 2.123,-1.106 2.123,-2.42c-0,-1.314 -0.71,-2.447 -2.141,-2.447c-0.64,-0 -1.234,0.224 -1.486,0.736l-0.018,0l-0,-0.628l-0.764,-0l0,6.433Z"/><path fill-rule="nonzero" d="M120.423,62.425l0.927,0l1.296,-1.932l1.295,1.932l0.981,0l-1.8,-2.52l1.602,-2.131l-0.918,-0l-1.16,1.621l-1.116,-1.621l-0.981,-0l1.62,2.203l-1.746,2.448Z"/><path fill="none" stroke="#000" stroke-width="1" d="M58.707,46.5l-3,3l3,3"/><path fill="none" stroke="#000" stroke-width="1" d="M75.293,46.5l3,3l-3,3"/><path fill="none" stroke="#000" stroke-miterlimit="1" stroke-width="1" d="M55.707,49.5l22.586,-0"/><path fill="none" stroke="#000" stroke-width="1" d="M82.707,46.5l-3,3l3,3"/><path fill="none" stroke="#000" stroke-width="1" d="M99.293,46.5l3,3l-3,3"/><path fill="none" stroke="#000" stroke-miterlimit="1" stroke-width="1" d="M79.707,49.5l22.586,-0"/><path fill="none" stroke="#000" stroke-width="1" d="M106.707,46.5l-3,3l3,3"/><path fill="none" stroke="#000" stroke-width="1" d="M123.293,46.5l3,3l-3,3"/><path fill="none" stroke="#000" stroke-miterlimit="1" stroke-width="1" d="M103.707,49.5l22.586,-0"/><rect width="24" height="24" x="55" y="15" fill="#e0e0ea"/><path fill="#6a6bd3" d="M79,15l0,24l-24,0l0,-24l24,0Zm-1,1c0,0 -22,0 -22,-0c0,-0 0,22 -0,22c-0,0 22,0 22,0l0,-22Z"/><rect width="24" height="24" x="79" y="15" fill="#e0e0ea"/><path fill="#6a6bd3" d="M103,15l0,24l-24,0l0,-24l24,0Zm-1,1c0,0 -22,0 -22,-0c0,-0 0,22 -0,22c-0,0 22,0 22,0l0,-22Z"/><rect width="24" height="24" x="103" y="15" fill="#e0e0ea"/><path fill="#6a6bd3" d="M127,15l0,24l-24,0l0,-24l24,0Zm-1,1c0,0 -22,0 -22,-0c0,-0 0,22 -0,22c-0,0 22,0 22,0l-0,-22Z"/></g></svg>